<mxfile host="Electron" agent="Mozilla/5.0 (X11; Linux x86_64) AppleWebKit/537.36 (KHTML, like Gecko) draw.io/24.7.8 Chrome/128.0.6613.36 Electron/32.0.1 Safari/537.36" version="24.7.8">
  <diagram id="C5RBs43oDa-KdzZeNtuy" name="Page-1">
    <mxGraphModel dx="3217" dy="3810" grid="1" gridSize="10" guides="1" tooltips="1" connect="1" arrows="1" fold="1" page="1" pageScale="1" pageWidth="827" pageHeight="1169" math="0" shadow="0">
      <root>
        <mxCell id="WIyWlLk6GJQsqaUBKTNV-0" />
        <mxCell id="WIyWlLk6GJQsqaUBKTNV-1" parent="WIyWlLk6GJQsqaUBKTNV-0" />
        <mxCell id="31" value="" style="group;shadow=1;" parent="WIyWlLk6GJQsqaUBKTNV-1" vertex="1" connectable="0">
          <mxGeometry x="-730" y="-1180" width="2330" height="1360" as="geometry" />
        </mxCell>
        <mxCell id="34" value="" style="rounded=1;whiteSpace=wrap;html=1;fillColor=#f5f5f5;shadow=0;glass=0;strokeColor=#666666;fontColor=#333333;" parent="31" vertex="1">
          <mxGeometry y="-84" width="2330" height="1360" as="geometry" />
        </mxCell>
        <mxCell id="13" value="" style="rounded=1;whiteSpace=wrap;html=1;fillColor=#d5e8d4;strokeColor=#82b366;shadow=1;sketch=1;curveFitting=1;jiggle=2;glass=0;" parent="31" vertex="1">
          <mxGeometry x="1494" y="314.56" width="526" height="755.44" as="geometry" />
        </mxCell>
        <mxCell id="11" value="" style="group;fontSize=125;" parent="31" vertex="1" connectable="0">
          <mxGeometry x="623" y="305" width="540" height="750" as="geometry" />
        </mxCell>
        <mxCell id="8" value="" style="rounded=1;whiteSpace=wrap;html=1;fillColor=#f8cecc;strokeColor=#b85450;shadow=1;sketch=1;curveFitting=1;jiggle=2;glass=0;" parent="11" vertex="1">
          <mxGeometry y="20.43" width="540" height="729.57" as="geometry" />
        </mxCell>
        <mxCell id="9" value="&lt;font style=&quot;font-size: 30px;&quot;&gt;web-customer&lt;/font&gt;" style="text;html=1;strokeColor=none;fillColor=none;align=center;verticalAlign=middle;whiteSpace=wrap;rounded=0;" parent="11" vertex="1">
          <mxGeometry x="167.00272727272727" y="15" width="225.45454545454547" height="163.47826086956525" as="geometry" />
        </mxCell>
        <mxCell id="16" style="edgeStyle=orthogonalEdgeStyle;rounded=0;orthogonalLoop=1;jettySize=auto;html=1;" parent="11" source="WIyWlLk6GJQsqaUBKTNV-3" target="QQi6kv3C0ZGWCtcUiTKL-1" edge="1">
          <mxGeometry relative="1" as="geometry" />
        </mxCell>
        <mxCell id="WIyWlLk6GJQsqaUBKTNV-3" value="从请求头获取token" style="rounded=1;whiteSpace=wrap;html=1;fontSize=15;glass=0;strokeWidth=1;shadow=1;sketch=1;curveFitting=1;jiggle=2;" parent="11" vertex="1">
          <mxGeometry x="40" y="190" width="180" height="70" as="geometry" />
        </mxCell>
        <mxCell id="25" style="edgeStyle=orthogonalEdgeStyle;rounded=0;orthogonalLoop=1;jettySize=auto;html=1;" parent="11" source="QQi6kv3C0ZGWCtcUiTKL-1" target="jjqJUE0dh4j3aAN8wKuU-37" edge="1">
          <mxGeometry relative="1" as="geometry">
            <mxPoint x="390.49999999999955" y="375" as="targetPoint" />
          </mxGeometry>
        </mxCell>
        <mxCell id="QQi6kv3C0ZGWCtcUiTKL-1" value="拿token查询reids，获取用户id，获取用户对应信息" style="rounded=1;whiteSpace=wrap;html=1;fontSize=15;glass=0;strokeWidth=1;shadow=1;sketch=1;curveFitting=1;jiggle=2;" parent="11" vertex="1">
          <mxGeometry x="301" y="187.5" width="179" height="75" as="geometry" />
        </mxCell>
        <mxCell id="jjqJUE0dh4j3aAN8wKuU-37" value="&lt;span style=&quot;font-size: 15px;&quot;&gt;返回用户信息&lt;/span&gt;" style="ellipse;whiteSpace=wrap;html=1;aspect=fixed;shadow=1;sketch=1;curveFitting=1;jiggle=2;" vertex="1" parent="11">
          <mxGeometry x="326" y="385" width="129" height="129" as="geometry" />
        </mxCell>
        <mxCell id="5" style="edgeStyle=orthogonalEdgeStyle;rounded=0;orthogonalLoop=1;jettySize=auto;html=1;" parent="31" source="26" target="WIyWlLk6GJQsqaUBKTNV-3" edge="1">
          <mxGeometry relative="1" as="geometry" />
        </mxCell>
        <mxCell id="4" value="用户" style="shape=umlActor;verticalLabelPosition=bottom;verticalAlign=top;html=1;outlineConnect=0;" parent="31" vertex="1">
          <mxGeometry x="104" y="475" width="50" height="110" as="geometry" />
        </mxCell>
        <mxCell id="12" value="" style="group" parent="31" vertex="1" connectable="0">
          <mxGeometry x="1494" y="300" width="690" height="870" as="geometry" />
        </mxCell>
        <mxCell id="QQi6kv3C0ZGWCtcUiTKL-11" value="&lt;span style=&quot;color: rgb(0, 0, 0); font-family: Helvetica; font-size: 15px; font-style: normal; font-variant-ligatures: normal; font-variant-caps: normal; font-weight: 400; letter-spacing: normal; orphans: 2; text-align: center; text-indent: 0px; text-transform: none; widows: 2; word-spacing: 0px; -webkit-text-stroke-width: 0px; white-space: normal; background-color: rgb(251, 251, 251); text-decoration-thickness: initial; text-decoration-style: initial; text-decoration-color: initial; float: none; display: inline !important;&quot;&gt;后端接口获取用户id&lt;/span&gt;" style="whiteSpace=wrap;html=1;rounded=1;glass=0;strokeWidth=1;shadow=1;sketch=1;curveFitting=1;jiggle=2;fontSize=15;" parent="12" vertex="1">
          <mxGeometry x="160" y="200" width="140" height="60" as="geometry" />
        </mxCell>
        <mxCell id="17" style="edgeStyle=orthogonalEdgeStyle;rounded=0;orthogonalLoop=1;jettySize=auto;html=1;entryX=0;entryY=0.5;entryDx=0;entryDy=0;" parent="31" source="QQi6kv3C0ZGWCtcUiTKL-1" target="QQi6kv3C0ZGWCtcUiTKL-11" edge="1">
          <mxGeometry relative="1" as="geometry" />
        </mxCell>
        <mxCell id="27" value="" style="edgeStyle=orthogonalEdgeStyle;rounded=0;orthogonalLoop=1;jettySize=auto;html=1;" parent="31" source="4" target="26" edge="1">
          <mxGeometry relative="1" as="geometry">
            <mxPoint x="154" y="530" as="sourcePoint" />
            <mxPoint x="663" y="530" as="targetPoint" />
          </mxGeometry>
        </mxCell>
        <mxCell id="26" value="&lt;span style=&quot;font-size: 30px;&quot;&gt;gateway网关&lt;/span&gt;" style="rounded=1;whiteSpace=wrap;html=1;fillColor=#dae8fc;strokeColor=#6c8ebf;shadow=0;glass=1;" parent="31" vertex="1">
          <mxGeometry x="294" y="480" width="230" height="100" as="geometry" />
        </mxCell>
        <mxCell id="28" value="&lt;font style=&quot;font-size: 60px;&quot;&gt;乘客端登录：获取用户登录信息流程&lt;/font&gt;" style="text;html=1;strokeColor=none;fillColor=none;align=center;verticalAlign=middle;whiteSpace=wrap;rounded=0;" parent="31" vertex="1">
          <mxGeometry x="724" y="140" width="1060" height="30" as="geometry" />
        </mxCell>
        <mxCell id="jjqJUE0dh4j3aAN8wKuU-36" style="edgeStyle=orthogonalEdgeStyle;rounded=0;orthogonalLoop=1;jettySize=auto;html=1;" edge="1" parent="31" source="QQi6kv3C0ZGWCtcUiTKL-21" target="QQi6kv3C0ZGWCtcUiTKL-1">
          <mxGeometry relative="1" as="geometry">
            <Array as="points">
              <mxPoint x="1550" y="900" />
              <mxPoint x="1550" y="550" />
            </Array>
          </mxGeometry>
        </mxCell>
        <mxCell id="QQi6kv3C0ZGWCtcUiTKL-21" value="返回用户信息" style="whiteSpace=wrap;html=1;rounded=1;glass=0;strokeWidth=1;shadow=1;sketch=1;curveFitting=1;jiggle=2;fontSize=15;" parent="31" vertex="1">
          <mxGeometry x="1664" y="870" width="120" height="60" as="geometry" />
        </mxCell>
        <mxCell id="jjqJUE0dh4j3aAN8wKuU-35" style="edgeStyle=orthogonalEdgeStyle;rounded=0;orthogonalLoop=1;jettySize=auto;html=1;" edge="1" parent="31" source="QQi6kv3C0ZGWCtcUiTKL-15" target="QQi6kv3C0ZGWCtcUiTKL-21">
          <mxGeometry relative="1" as="geometry" />
        </mxCell>
        <mxCell id="QQi6kv3C0ZGWCtcUiTKL-15" value="根据用户id查询对应的用信息" style="whiteSpace=wrap;html=1;rounded=1;glass=0;strokeWidth=1;shadow=1;sketch=1;curveFitting=1;jiggle=2;fontSize=15;" parent="31" vertex="1">
          <mxGeometry x="1614" y="670" width="220" height="90" as="geometry" />
        </mxCell>
        <mxCell id="QQi6kv3C0ZGWCtcUiTKL-14" value="" style="edgeStyle=orthogonalEdgeStyle;rounded=0;orthogonalLoop=1;jettySize=auto;html=1;" parent="31" source="QQi6kv3C0ZGWCtcUiTKL-11" target="QQi6kv3C0ZGWCtcUiTKL-15" edge="1">
          <mxGeometry relative="1" as="geometry" />
        </mxCell>
        <mxCell id="22" value="&lt;font style=&quot;font-size: 30px;&quot;&gt;远程调用&lt;/font&gt;" style="rounded=1;whiteSpace=wrap;html=1;fillColor=#dae8fc;strokeColor=#6c8ebf;shadow=0;glass=1;" parent="31" vertex="1">
          <mxGeometry x="1214" y="465" width="230" height="100" as="geometry" />
        </mxCell>
        <mxCell id="14" value="&lt;font style=&quot;font-size: 30px;&quot;&gt;service-customer&lt;/font&gt;" style="text;html=1;strokeColor=none;fillColor=none;align=center;verticalAlign=middle;whiteSpace=wrap;rounded=0;" parent="31" vertex="1">
          <mxGeometry x="1579.9972727272727" y="290" width="334.54545454545456" height="233.04347826086956" as="geometry" />
        </mxCell>
      </root>
    </mxGraphModel>
  </diagram>
</mxfile>
